<svg width="237" height="47" viewBox="0 0 237 47" fill="none" xmlns="http://www.w3.org/2000/svg">
<g id="Frame 5" clip-path="url(#clip0_19_18)">
<g id="Frame 2">
<path id="QUEST" d="M128.735 36.315C127.918 36.4317 127.137 36.49 126.39 36.49C122.517 36.49 119.623 35.51 117.71 33.55C115.82 31.59 114.875 28.615 114.875 24.625C114.875 22.035 115.353 19.795 116.31 17.905C117.267 15.9917 118.632 14.5217 120.405 13.495C122.178 12.4683 124.29 11.955 126.74 11.955C134.533 11.955 138.43 15.9333 138.43 23.89C138.43 27.5767 137.52 30.505 135.7 32.675L139.585 32.5V37.26H137.31L128.735 36.315ZM127.125 31.66C127.825 31.66 128.467 31.5783 129.05 31.415C129.657 31.2517 130.287 30.995 130.94 30.645C131.197 29.9217 131.395 29.0233 131.535 27.95C131.675 26.8533 131.745 25.78 131.745 24.73C131.745 22.14 131.255 20.18 130.275 18.85C129.318 17.52 127.907 16.855 126.04 16.855C124.733 16.855 123.45 17.1 122.19 17.59C121.933 18.0333 121.735 18.7567 121.595 19.76C121.478 20.7633 121.42 21.93 121.42 23.26C121.42 25.9667 121.898 28.0433 122.855 29.49C123.835 30.9367 125.258 31.66 127.125 31.66ZM151.965 36.455C148.535 36.455 146.015 35.5567 144.405 33.76C142.818 31.94 142.025 29.0933 142.025 25.22V18.325C142.025 17.7183 141.978 17.3217 141.885 17.135C141.815 16.925 141.593 16.7383 141.22 16.575L140.1 15.91L140.205 12.41H151.125L151.3 15.875L148.395 16.68V23.855C148.395 26.2817 148.745 28.195 149.445 29.595C150.145 30.995 151.346 31.695 153.05 31.695C153.61 31.695 154.146 31.6133 154.66 31.45C155.196 31.2867 155.651 31.065 156.025 30.785C156.258 30.2483 156.421 29.5367 156.515 28.65C156.608 27.74 156.655 26.5267 156.655 25.01V18.325C156.655 17.7183 156.608 17.3217 156.515 17.135C156.421 16.925 156.176 16.7383 155.78 16.575L154.065 15.595L154.24 12.41H164.635L164.81 16.19L162.99 16.68V24.59C162.99 28.3467 162.021 31.2633 160.085 33.34C158.171 35.4167 155.465 36.455 151.965 36.455ZM166.522 32.43L169.077 31.73V18.325C169.077 17.7183 169.03 17.3217 168.937 17.135C168.844 16.925 168.599 16.7383 168.202 16.575L166.452 15.56L166.557 12.41H185.562C185.725 14.86 185.807 17.2517 185.807 19.585L183.217 19.76L180.732 16.68L175.447 16.54V22.245L182.902 21.615V27.005L175.447 26.2V31.835L181.257 31.73L183.952 28.65L186.542 28.825C186.449 31.275 186.274 33.6667 186.017 36H166.697L166.522 32.43ZM196.169 36.42C193.602 36.42 191 36.0233 188.364 35.23C188.48 32.92 188.667 30.7733 188.924 28.79L191.619 28.265L193.369 31.24C194.769 31.73 196.005 31.975 197.079 31.975C197.452 31.975 198.245 31.87 199.459 31.66C199.505 31.1933 199.529 30.8783 199.529 30.715C199.529 30.155 199.435 29.735 199.249 29.455C199.062 29.1517 198.654 28.825 198.024 28.475C197.394 28.1017 196.262 27.5533 194.629 26.83C192.622 25.85 191.175 24.8 190.289 23.68C189.402 22.5367 188.959 21.195 188.959 19.655C188.959 17.2517 189.775 15.3733 191.409 14.02C193.042 12.6667 195.282 11.99 198.129 11.99C199.505 11.99 200.87 12.13 202.224 12.41C203.6 12.6667 204.802 13.0283 205.829 13.495C205.782 14.8017 205.677 16.4233 205.514 18.36L205.409 19.865L202.854 20.25L200.194 16.855C199.354 16.5983 198.304 16.47 197.044 16.47C196.25 16.47 195.655 16.54 195.259 16.68C195.142 17.1467 195.084 17.5083 195.084 17.765C195.084 18.2783 195.212 18.7333 195.469 19.13C195.725 19.5033 196.18 19.9 196.834 20.32C197.487 20.7167 198.455 21.2183 199.739 21.825C201.605 22.7117 203.017 23.4933 203.974 24.17C204.93 24.8467 205.595 25.5583 205.969 26.305C206.365 27.0283 206.564 27.915 206.564 28.965C206.564 31.275 205.642 33.095 203.799 34.425C201.955 35.755 199.412 36.42 196.169 36.42ZM213.194 32.57L216.239 31.73V16.575L213.299 16.82L210.709 19.935L208.154 19.725C208.154 17.7883 208.247 15.35 208.434 12.41H230.344C230.53 15.35 230.624 17.7883 230.624 19.725L228.104 19.935L225.479 16.82L222.609 16.575V30.33C222.609 30.89 222.644 31.2517 222.714 31.415C222.784 31.5783 222.982 31.7417 223.309 31.905L225.479 33.2L225.339 36H213.369L213.194 32.57Z" fill="white" style="fill:white;fill-opacity:1;"/>
</g>
<g id="Frame 1" clip-path="url(#clip1_19_18)">
<rect width="109" height="47" fill="#5AEE5A" style="fill:#5AEE5A;fill:color(display-p3 0.3545 0.9327 0.3515);fill-opacity:1;"/>
<path id="CODE" d="M10.493 38.516V34.646H6.58V14.78H10.493V10.867H22.619V14.78H26.575V22.95H22.189V15.21H10.923V34.216H22.189V26.39H26.575V34.646H22.619V38.516H10.493ZM35.6883 38.516V34.646H31.7753V14.78H35.6883V10.867H47.8143V14.78H51.7703V34.646H47.8143V38.516H35.6883ZM36.1183 34.216H47.3843V15.21H36.1183V34.216ZM56.9706 38.516V10.867H69.1396V14.78H73.0096V18.65H76.9656V30.733H73.0096V34.646H69.1396V38.516H56.9706ZM61.3136 34.216H68.7096V30.303H72.5796V19.08H68.7096V15.21H61.3136V34.216ZM86.0789 38.516V34.646H82.1659V14.78H86.0789V10.867H98.2049V14.78H102.161V19.08H97.7749V15.21H86.5089V22.563H94.3349V26.82H86.5089V34.216H97.7749V30.303H102.161V34.646H98.2049V38.516H86.0789Z" fill="black" style="fill:black;fill-opacity:1;"/>
</g>
</g>
<defs>
<clipPath id="clip0_19_18">
<rect width="237" height="47" fill="white" style="fill:white;fill-opacity:1;"/>
</clipPath>
<clipPath id="clip1_19_18">
<rect width="109" height="47" fill="white" style="fill:white;fill-opacity:1;"/>
</clipPath>
</defs>
</svg>
