<svg width="268" height="47" viewBox="0 0 268 47" fill="none" xmlns="http://www.w3.org/2000/svg">
<g id="Frame 9" clip-path="url(#clip0_23_35)">
<g id="Frame 2" clip-path="url(#clip1_23_35)">
<path id="DOWN" d="M150.435 36.105C147.915 36.105 145.593 36 143.47 35.79L143.295 32.43L145.85 31.73V18.395C145.85 17.7883 145.803 17.3917 145.71 17.205C145.617 16.995 145.372 16.8083 144.975 16.645L143.155 15.63L143.365 12.725C145.792 12.5383 147.833 12.3983 149.49 12.305C151.147 12.1883 152.477 12.13 153.48 12.13C156.7 12.13 159.278 12.5033 161.215 13.25C163.175 13.9967 164.598 15.175 165.485 16.785C166.395 18.395 166.85 20.53 166.85 23.19C166.85 26.55 166.08 29.2683 164.54 31.345C163.163 33.1417 161.332 34.39 159.045 35.09C156.782 35.7667 153.912 36.105 150.435 36.105ZM154.845 31.1C156.805 31.1 158.357 30.8667 159.5 30.4C159.71 29.8167 159.897 28.9067 160.06 27.67C160.247 26.4333 160.34 25.2783 160.34 24.205C160.34 21.5683 159.792 19.62 158.695 18.36C157.622 17.1 155.977 16.47 153.76 16.47C153.457 16.47 153.177 16.4817 152.92 16.505C152.663 16.5283 152.418 16.5517 152.185 16.575V30.925C153.118 31.0417 154.005 31.1 154.845 31.1ZM181.016 36.49C177.143 36.49 174.249 35.51 172.336 33.55C170.446 31.59 169.501 28.615 169.501 24.625C169.501 22.035 169.979 19.795 170.936 17.905C171.893 15.9917 173.258 14.5217 175.031 13.495C176.804 12.4683 178.916 11.955 181.366 11.955C189.159 11.955 193.056 15.9333 193.056 23.89C193.056 26.5033 192.578 28.755 191.621 30.645C190.664 32.535 189.276 33.9817 187.456 34.985C185.659 35.9883 183.513 36.49 181.016 36.49ZM181.751 31.66C183.081 31.66 184.353 31.3217 185.566 30.645C185.823 29.9217 186.021 29.0233 186.161 27.95C186.301 26.8533 186.371 25.78 186.371 24.73C186.371 22.14 185.881 20.18 184.901 18.85C183.944 17.52 182.533 16.855 180.666 16.855C179.336 16.855 178.053 17.1 176.816 17.59C176.559 18.0333 176.361 18.7683 176.221 19.795C176.081 20.7983 176.011 21.9533 176.011 23.26C176.011 25.9667 176.501 28.0433 177.481 29.49C178.461 30.9367 179.884 31.66 181.751 31.66ZM195.061 16.505L193.871 14.86L194.011 12.41H204.056L204.266 15.735L201.746 16.4L206.086 29.945L209.551 19.165L208.011 14.65L208.151 12.41H217.461L217.671 15.735L215.361 16.4L219.666 29.945L223.691 17.555C223.761 17.3683 223.796 17.205 223.796 17.065C223.796 16.7617 223.644 16.5633 223.341 16.47L220.961 15.49L221.171 12.41H230.341L230.516 15.385L229.081 17.345L221.731 36.14L215.606 36.735L211.931 26.025L208.151 36.14L201.676 36.735L195.061 16.505ZM238.384 21.09L238.979 30.26C239.002 30.7967 239.061 31.1467 239.154 31.31C239.247 31.4733 239.457 31.6483 239.784 31.835L241.604 33.06L241.464 36H232.364L232.189 32.185L234.079 31.73L234.219 17.94C234.219 17.4967 234.184 17.1933 234.114 17.03C234.044 16.8667 233.881 16.68 233.624 16.47L232.329 15.49L232.574 12.41H239.819L250.389 25.955L249.899 18.15C249.876 17.59 249.817 17.2283 249.724 17.065C249.631 16.9017 249.421 16.7267 249.094 16.54L247.274 15.35L247.379 12.41H256.409L256.549 15.98L254.764 16.75L254.624 35.685L250.599 37.015L238.384 21.09Z" fill="#88BFD4" style="fill:#88BFD4;fill:color(display-p3 0.5333 0.7490 0.8314);fill-opacity:1;"/>
</g>
<g id="Frame 1" clip-path="url(#clip2_23_35)">
<rect width="131" height="47" fill="#E9C881" style="fill:#E9C881;fill:color(display-p3 0.9137 0.7843 0.5059);fill-opacity:1;"/>
<path id="MARK" d="M13.58 38.516V14.78H17.493V10.867H21.793V14.78H25.749V22.563H29.189V14.78H33.145V10.867H37.488V14.78H41.358V38.516H37.058V15.21H33.575V22.95H29.619V34.646H25.319V22.95H21.363V15.21H17.923V38.516H13.58ZM46.1239 38.516V18.65H50.0369V14.78H53.9069V10.867H58.2929V14.78H62.1629V18.65H66.1189V38.516H61.7329V30.733H50.4669V38.516H46.1239ZM50.4669 26.39H61.7329V19.08H57.8629V15.21H54.3369V19.08H50.4669V26.39ZM71.3193 38.516V14.78H75.2323V10.867H87.3583V14.78H91.3143V26.82H87.3583V30.733H85.4663V34.216H89.3363V38.516H85.0363V34.646H81.0803V30.733H75.6623V38.516H71.3193ZM75.6623 26.39H86.9283V15.21H75.6623V26.39ZM96.5146 38.516V14.78H100.428V10.867H104.728V15.21H100.858V22.563H104.298V18.65H108.254V14.78H112.124V10.867H116.51V15.21H112.554V19.08H108.684V22.95H104.728V26.39H108.684V30.303H112.554V34.216H116.51V38.516H112.124V34.646H108.254V30.733H104.298V26.82H100.858V38.516H96.5146Z" fill="#2B6A9D" style="fill:#2B6A9D;fill:color(display-p3 0.1686 0.4157 0.6157);fill-opacity:1;"/>
</g>
</g>
<defs>
<clipPath id="clip0_23_35">
<rect width="268" height="47" fill="white" style="fill:white;fill-opacity:1;"/>
</clipPath>
<clipPath id="clip1_23_35">
<rect width="137" height="47" fill="white" style="fill:white;fill-opacity:1;" transform="translate(131)"/>
</clipPath>
<clipPath id="clip2_23_35">
<rect width="131" height="47" fill="white" style="fill:white;fill-opacity:1;"/>
</clipPath>
</defs>
</svg>
